<?xml version="1.0" encoding="UTF-8" standalone="no"?>
<!-- Created with Inkscape (http://www.inkscape.org/) -->

<svg
   width="210mm"
   height="51.494999mm"
   viewBox="0 0 210 51.494999"
   version="1.1"
   id="svg28447"
   inkscape:version="1.1 (c4e8f9ed74, 2021-05-24)"
   sodipodi:docname="wordmark.svg"
   xmlns:inkscape="http://www.inkscape.org/namespaces/inkscape"
   xmlns:sodipodi="http://sodipodi.sourceforge.net/DTD/sodipodi-0.dtd"
   xmlns:xlink="http://www.w3.org/1999/xlink"
   xmlns="http://www.w3.org/2000/svg"
   xmlns:svg="http://www.w3.org/2000/svg">
  <sodipodi:namedview
     id="namedview28449"
     pagecolor="#ffffff"
     bordercolor="#666666"
     borderopacity="1.0"
     inkscape:pageshadow="2"
     inkscape:pageopacity="0.0"
     inkscape:pagecheckerboard="0"
     inkscape:document-units="mm"
     showgrid="false"
     inkscape:zoom="0.69130191"
     inkscape:cx="397.07687"
     inkscape:cy="561.25984"
     inkscape:window-width="1920"
     inkscape:window-height="1009"
     inkscape:window-x="0"
     inkscape:window-y="0"
     inkscape:window-maximized="1"
     inkscape:current-layer="layer1" />
  <defs
     id="defs28444">
    <linearGradient
       inkscape:collect="always"
       xlink:href="#linearGradient9723"
       id="linearGradient9725"
       x1="124.14878"
       y1="156.65468"
       x2="206.22191"
       y2="60.85429"
       gradientUnits="userSpaceOnUse"
       gradientTransform="matrix(0.48151529,0,0,0.48151529,35.838831,-29.912658)" />
    <linearGradient
       inkscape:collect="always"
       id="linearGradient9723">
      <stop
         style="stop-color:#1a31c9;stop-opacity:1"
         offset="0"
         id="stop9719" />
      <stop
         style="stop-color:#b38dff;stop-opacity:1"
         offset="1"
         id="stop9721" />
    </linearGradient>
  </defs>
  <g
     inkscape:label="Layer 1"
     inkscape:groupmode="layer"
     id="layer1">
    <g
       id="g28522"
       transform="matrix(1.3405118,0,0,1.3405118,-35.834056,-173.31863)">
      <g
         id="g24912"
         inkscape:export-filename="/home/velocity/Downloads/g24912.png"
         inkscape:export-xdpi="96"
         inkscape:export-ydpi="96"
         transform="matrix(0.73236214,0,0,0.73236214,-36.51753,120.18548)">
        <path
           d="M 86.36322,64.233418 V 13.534261 h 18.91861 c 3.448,0 6.48768,0.635158 9.11904,1.905472 2.67674,1.224947 4.76368,3.039679 6.26084,5.444203 1.49715,2.359155 2.24573,5.240047 2.24573,8.642675 0,3.357258 -0.77126,6.238152 -2.31378,8.642678 -1.49716,2.359157 -3.56142,4.173892 -6.19279,5.444206 -2.63136,1.270313 -5.67104,1.90547 -9.11904,1.90547 h -9.663462 v 18.714453 z"
           id="path6152"
           sodipodi:nodetypes="ccsccscssccc"
           style="font-size:141.33px;line-height:1.25;font-family:'Plus Jakarta Sans';-inkscape-font-specification:'Plus Jakarta Sans, @wght=700';font-variation-settings:'wght' 700;mix-blend-mode:normal;fill:url(#linearGradient9725);fill-opacity:1;stroke:none;stroke-width:1.70132;stroke-opacity:1" />
        <path
           id="rect6322"
           style="font-size:141.33px;line-height:1.25;font-family:'Plus Jakarta Sans';-inkscape-font-specification:'Plus Jakarta Sans, @wght=700';font-variation-settings:'wght' 700;fill:#ffffff;stroke-width:0.298016"
           d="m 104.63533,20.629022 c -2.12319,5.644578 -3.24704,7.322505 -8.897653,8.897681 5.650613,1.575176 6.774463,3.253103 8.897653,8.897654 1.57517,-5.650618 3.2531,-6.774456 8.89766,-8.897654 -5.64456,-2.123198 -7.32249,-3.247037 -8.89766,-8.897681 z" />
      </g>
      <g
         aria-label="Polaris"
         transform="matrix(1.2488373,0,0,1.2488373,-384.69771,55.830371)"
         id="text14109"
         style="font-size:40px;line-height:1.25;font-family:'Plus Jakarta Sans';-inkscape-font-specification:'Plus Jakarta Sans, @wght=700';font-variation-settings:'wght' 700;white-space:pre;shape-inside:url(#rect14111);fill:#ffffff"
         inkscape:export-filename="/home/velocity/Downloads/g24912.png"
         inkscape:export-xdpi="96"
         inkscape:export-ydpi="96">
        <path
           d="m 364.57207,89.584725 q -3.2,0 -5.84,-1.48 -2.6,-1.48 -4.16,-4.04 -1.52,-2.56 -1.52,-5.84 0,-3.28 1.52,-5.84 1.56,-2.56 4.16,-4.04 2.6,-1.48 5.8,-1.48 3.24,0 5.84,1.48 2.6,1.48 4.12,4.04 1.56,2.56 1.56,5.84 0,3.28 -1.56,5.84 -1.56,2.56 -4.16,4.04 -2.6,1.48 -5.76,1.48 z m -0.04,-4.8 q 1.8,0 3.12,-0.84 1.36,-0.84 2.12,-2.32 0.8,-1.48 0.8,-3.4 0,-1.92 -0.8,-3.36 -0.76,-1.48 -2.12,-2.32 -1.32,-0.88 -3.12,-0.88 -1.76,0 -3.12,0.88 -1.36,0.84 -2.16,2.32 -0.76,1.48 -0.76,3.36 0,1.88 0.76,3.4 0.8,1.48 2.16,2.32 1.36,0.84 3.12,0.84 z"
           id="path24622"
           style="fill:#ffffff" />
        <path
           d="m 380.01201,89.104725 v -30.28 h 5.24 v 30.28 z"
           id="path24624"
           style="fill:#ffffff" />
        <path
           d="m 396.69196,89.584725 q -2.28,0 -3.96,-0.76 -1.68,-0.76 -2.6,-2.16 -0.92,-1.44 -0.92,-3.32 0,-1.8 0.8,-3.2 0.8,-1.44 2.48,-2.4 1.68,-0.96 4.24,-1.36 l 7.12,-1.16 v 4 l -6.12,1.04 q -1.56,0.28 -2.32,1 -0.76,0.72 -0.76,1.88 0,1.12 0.84,1.8 0.88,0.64 2.16,0.64 1.64,0 2.88,-0.68 1.28,-0.72 1.96,-1.96 0.72,-1.24 0.72,-2.72 v -5.6 q 0,-1.4 -1.12,-2.32 -1.08,-0.96 -2.88,-0.96 -1.68,0 -3,0.92 -1.28,0.88 -1.88,2.36 l -4.28,-2.08 q 0.64,-1.72 2,-2.96 1.4,-1.28 3.28,-2 1.88,-0.72 4.08,-0.72 2.68,0 4.72,1 2.04,0.96 3.16,2.72 1.16,1.72 1.16,4.04 v 14.48 h -4.96 v -3.72 l 1.12,-0.08 q -0.84,1.4 -2,2.36 -1.16,0.92 -2.64,1.44 -1.48,0.48 -3.28,0.48 z"
           id="path24626"
           style="fill:#ffffff" />
        <path
           d="m 413.29196,89.104725 v -21.76 h 4.92 v 4.84 l -0.4,-0.72 q 0.76,-2.44 2.36,-3.4 1.64,-0.96 3.92,-0.96 h 1.28 v 4.64 h -1.88 q -2.24,0 -3.6,1.4 -1.36,1.36 -1.36,3.84 v 12.12 z"
           id="path24628"
           style="fill:#ffffff" />
        <path
           d="m 428.2519,89.104725 v -21.76 h 5.24 v 21.76 z m 0,-24.2 v -5.6 h 5.24 v 5.6 z"
           id="path24630"
           style="fill:#ffffff" />
        <path
           d="m 446.61186,89.584725 q -3.48,0 -6.08,-1.64 -2.56,-1.68 -3.52,-4.52 l 3.92,-1.88 q 0.84,1.84 2.32,2.88 1.52,1.04 3.36,1.04 1.44,0 2.28,-0.64 0.84,-0.64 0.84,-1.68 0,-0.64 -0.36,-1.04 -0.32,-0.44 -0.92,-0.72 -0.56,-0.32 -1.24,-0.52 l -3.56,-1 q -2.76,-0.8 -4.2,-2.44 -1.4,-1.64 -1.4,-3.88 0,-2 1,-3.48 1.04,-1.52 2.84,-2.36 1.84,-0.84 4.2,-0.84 3.08,0 5.44,1.48 2.36,1.48 3.36,4.16 l -4,1.88 q -0.56,-1.48 -1.88,-2.36 -1.32,-0.88 -2.96,-0.88 -1.32,0 -2.08,0.6 -0.76,0.6 -0.76,1.56 0,0.6 0.32,1.04 0.32,0.44 0.88,0.72 0.6,0.28 1.36,0.52 l 3.48,1.04 q 2.68,0.8 4.12,2.4 1.48,1.6 1.48,3.92 0,1.96 -1.04,3.48 -1.04,1.48 -2.88,2.32 -1.84,0.84 -4.32,0.84 z"
           id="path24632"
           style="fill:#ffffff" />
      </g>
    </g>
  </g>
</svg>
